<svg id="visual" viewBox="0 0 960 540" width="960" height="540" xmlns="http://www.w3.org/2000/svg" xmlns:xlink="http://www.w3.org/1999/xlink" version="1.1"><path d="M0 125L240 125L480 147L720 82L960 104L960 0L720 0L480 0L240 0L0 0Z" fill="#09da9b"></path><path d="M0 174L240 147L480 179L720 109L960 152L960 102L720 80L480 145L240 123L0 123Z" fill="#00cc9a"></path><path d="M0 206L240 201L480 217L720 152L960 174L960 150L720 107L480 177L240 145L0 172Z" fill="#00bd98"></path><path d="M0 233L240 222L480 260L720 168L960 190L960 172L720 150L480 215L240 199L0 204Z" fill="#00af94"></path><path d="M0 249L240 260L480 282L720 195L960 212L960 188L720 166L480 258L240 220L0 231Z" fill="#00a08e"></path><path d="M0 282L240 303L480 325L720 222L960 249L960 210L720 193L480 280L240 258L0 247Z" fill="#009287"></path><path d="M0 379L240 374L480 368L720 379L960 341L960 247L720 220L480 323L240 301L0 280Z" fill="#00847f"></path><path d="M0 433L240 476L480 428L720 460L960 411L960 339L720 377L480 366L240 372L0 377Z" fill="#007675"></path><path d="M0 503L240 498L480 498L720 503L960 492L960 409L720 458L480 426L240 474L0 431Z" fill="#00686b"></path><path d="M0 530L240 530L480 509L720 519L960 514L960 490L720 501L480 496L240 496L0 501Z" fill="#025b60"></path><path d="M0 541L240 541L480 541L720 541L960 541L960 512L720 517L480 507L240 528L0 528Z" fill="#094e55"></path></svg>